<svg t="1615517093262" class="icon" viewBox="0 0 1024 1024" version="1.1" xmlns="http://www.w3.org/2000/svg" p-id="2472" width="200" height="200"><path d="M475.477333 0H73.045333A73.130667 73.130667 0 0 0 0 73.045333v877.824c0 40.448 32.768 73.130667 73.045333 73.130667h877.738667a73.130667 73.130667 0 0 0 73.130667-73.045333V548.522667a36.437333 36.437333 0 0 0-62.378667-25.770667 36.437333 36.437333 0 0 0-10.752 25.770667v402.432H73.130667V73.130667h402.346666a36.437333 36.437333 0 0 0 25.856-62.378667A36.437333 36.437333 0 0 0 475.477333 0z m438.954667 73.045333a36.522667 36.522667 0 0 1 25.856 62.378667L515.754667 560.128l-65.706667 14.165333 14.165333-66.048L888.576 83.882667a36.693333 36.693333 0 0 1 25.856-10.752z m0-73.045333c-28.074667 0-56.149333 10.752-77.568 32.085333L412.330667 456.618667a73.386667 73.386667 0 0 0-19.797334 36.437333l-26.453333 124.074667a36.522667 36.522667 0 0 0 41.386667 41.386666l123.818666-26.794666a72.789333 72.789333 0 0 0 36.181334-19.797334l424.362666-424.533333A109.824 109.824 0 0 0 914.432 0z" p-id="2473"></path></svg>